<?xml version="1.0" encoding="UTF-8" standalone="no"?>
<!-- Generator: Adobe Illustrator 19.0.0, SVG Export Plug-In . SVG Version: 6.00 Build 0)  -->

<svg
   version="1.1"
   id="Layer_1"
   x="0px"
   y="0px"
   viewBox="0 0 299.92 299.92"
   style="enable-background:new 0 0 299.92 299.92;"
   xml:space="preserve"
   sodipodi:docname="ram-memory-svgrepo-com.svg"
   inkscape:version="1.1.1 (3bf5ae0d25, 2021-09-20, custom)"
   xmlns:inkscape="http://www.inkscape.org/namespaces/inkscape"
   xmlns:sodipodi="http://sodipodi.sourceforge.net/DTD/sodipodi-0.dtd"
   xmlns="http://www.w3.org/2000/svg"
   xmlns:svg="http://www.w3.org/2000/svg"><defs
   id="defs69" /><sodipodi:namedview
   id="namedview67"
   pagecolor="#505050"
   bordercolor="#eeeeee"
   borderopacity="1"
   inkscape:pageshadow="0"
   inkscape:pageopacity="0"
   inkscape:pagecheckerboard="0"
   showgrid="false"
   inkscape:zoom="2.7007201"
   inkscape:cx="149.77487"
   inkscape:cy="149.96001"
   inkscape:window-width="1868"
   inkscape:window-height="1010"
   inkscape:window-x="52"
   inkscape:window-y="32"
   inkscape:window-maximized="1"
   inkscape:current-layer="Layer_1" />
<g
   id="g34"
   transform="matrix(0.99420976,0,0,1,1.7366087,0)"
   style="fill:#ffffff">
	<g
   id="g32"
   style="fill:#ffffff">
		<g
   id="g30"
   style="fill:#ffffff">
			<path
   d="M 293.4,65.2 H 6.52 C 2.914,65.2 0,68.114 0,71.72 v 117.36 c 0,3.606 2.914,6.52 6.52,6.52 h 6.52 v 32.6 c 0,3.606 2.914,6.52 6.52,6.52 h 260.8 c 3.606,0 6.52,-2.914 6.52,-6.52 v -32.6 h 6.52 c 3.606,0 6.52,-2.914 6.52,-6.52 V 71.72 c 0,-3.606 -2.914,-6.52 -6.52,-6.52 z M 273.84,221.68 H 254.28 228.2 202.12 176.04 149.96 123.88 97.8 71.72 45.64 26.08 V 195.6 h 19.56 26.08 26.08 26.08 26.08 26.08 26.08 26.08 26.08 19.56 v 26.08 z m 13.04,-39.12 H 280.36 19.56 13.04 V 78.24 h 273.84 z"
   id="path2"
   style="fill:#ffffff" />
			<path
   d="m 32.6,169.52 h 39.12 c 3.606,0 6.52,-2.914 6.52,-6.52 V 97.8 c 0,-3.606 -2.914,-6.52 -6.52,-6.52 H 32.6 c -3.606,0 -6.52,2.914 -6.52,6.52 V 163 c 0,3.606 2.914,6.52 6.52,6.52 z m 6.52,-65.2 H 65.2 v 52.16 H 39.12 Z"
   id="path4"
   style="fill:#ffffff" />
			<path
   d="m 97.8,169.52 h 39.12 c 3.606,0 6.52,-2.914 6.52,-6.52 V 97.8 c 0,-3.606 -2.914,-6.52 -6.52,-6.52 H 97.8 c -3.606,0 -6.52,2.914 -6.52,6.52 V 163 c 0,3.606 2.914,6.52 6.52,6.52 z m 6.52,-65.2 h 26.08 v 52.16 h -26.08 v -52.16 z"
   id="path6"
   style="fill:#ffffff" />
			<path
   d="m 163,169.52 h 39.12 c 3.606,0 6.52,-2.914 6.52,-6.52 V 97.8 c 0,-3.606 -2.914,-6.52 -6.52,-6.52 H 163 c -3.606,0 -6.52,2.914 -6.52,6.52 V 163 c 0,3.606 2.914,6.52 6.52,6.52 z m 6.52,-65.2 h 26.08 v 52.16 h -26.08 v -52.16 z"
   id="path8"
   style="fill:#ffffff" />
			<path
   d="m 228.2,169.52 h 39.12 c 3.606,0 6.52,-2.914 6.52,-6.52 V 97.8 c 0,-3.606 -2.914,-6.52 -6.52,-6.52 H 228.2 c -3.606,0 -6.52,2.914 -6.52,6.52 V 163 c 0,3.606 2.914,6.52 6.52,6.52 z m 6.52,-65.2 h 26.08 v 52.16 h -26.08 v -52.16 z"
   id="path10"
   style="fill:#ffffff" />
			<path
   d="m 52.16,215.16 v -13.04 c 0,-3.606 -2.914,-6.52 -6.52,-6.52 -3.606,0 -6.52,2.914 -6.52,6.52 v 13.04 c 0,3.606 2.914,6.52 6.52,6.52 3.606,0 6.52,-2.914 6.52,-6.52 z"
   id="path12"
   style="fill:#ffffff" />
			<path
   d="m 78.24,215.16 v -13.04 c 0,-3.606 -2.914,-6.52 -6.52,-6.52 -3.606,0 -6.52,2.914 -6.52,6.52 v 13.04 c 0,3.606 2.914,6.52 6.52,6.52 3.606,0 6.52,-2.914 6.52,-6.52 z"
   id="path14"
   style="fill:#ffffff" />
			<path
   d="m 104.32,215.16 v -13.04 c 0,-3.606 -2.914,-6.52 -6.52,-6.52 -3.606,0 -6.52,2.914 -6.52,6.52 v 13.04 c 0,3.606 2.914,6.52 6.52,6.52 3.606,0 6.52,-2.914 6.52,-6.52 z"
   id="path16"
   style="fill:#ffffff" />
			<path
   d="m 130.4,215.16 v -13.04 c 0,-3.606 -2.914,-6.52 -6.52,-6.52 -3.606,0 -6.52,2.914 -6.52,6.52 v 13.04 c 0,3.606 2.914,6.52 6.52,6.52 3.606,0 6.52,-2.914 6.52,-6.52 z"
   id="path18"
   style="fill:#ffffff" />
			<path
   d="m 156.48,215.16 v -13.04 c 0,-3.606 -2.914,-6.52 -6.52,-6.52 -3.606,0 -6.52,2.914 -6.52,6.52 v 13.04 c 0,3.606 2.914,6.52 6.52,6.52 3.606,0 6.52,-2.914 6.52,-6.52 z"
   id="path20"
   style="fill:#ffffff" />
			<path
   d="m 182.56,215.16 v -13.04 c 0,-3.606 -2.914,-6.52 -6.52,-6.52 -3.606,0 -6.52,2.914 -6.52,6.52 v 13.04 c 0,3.606 2.914,6.52 6.52,6.52 3.606,0 6.52,-2.914 6.52,-6.52 z"
   id="path22"
   style="fill:#ffffff" />
			<path
   d="m 208.64,215.16 v -13.04 c 0,-3.606 -2.914,-6.52 -6.52,-6.52 -3.606,0 -6.52,2.914 -6.52,6.52 v 13.04 c 0,3.606 2.914,6.52 6.52,6.52 3.606,0 6.52,-2.914 6.52,-6.52 z"
   id="path24"
   style="fill:#ffffff" />
			<path
   d="m 234.72,215.16 v -13.04 c 0,-3.606 -2.914,-6.52 -6.52,-6.52 -3.606,0 -6.52,2.914 -6.52,6.52 v 13.04 c 0,3.606 2.914,6.52 6.52,6.52 3.606,0 6.52,-2.914 6.52,-6.52 z"
   id="path26"
   style="fill:#ffffff" />
			<path
   d="m 260.8,215.16 v -13.04 c 0,-3.606 -2.914,-6.52 -6.52,-6.52 -3.606,0 -6.52,2.914 -6.52,6.52 v 13.04 c 0,3.606 2.914,6.52 6.52,6.52 3.606,0 6.52,-2.914 6.52,-6.52 z"
   id="path28"
   style="fill:#ffffff" />
		</g>
	</g>
</g>
<g
   id="g36">
</g>
<g
   id="g38">
</g>
<g
   id="g40">
</g>
<g
   id="g42">
</g>
<g
   id="g44">
</g>
<g
   id="g46">
</g>
<g
   id="g48">
</g>
<g
   id="g50">
</g>
<g
   id="g52">
</g>
<g
   id="g54">
</g>
<g
   id="g56">
</g>
<g
   id="g58">
</g>
<g
   id="g60">
</g>
<g
   id="g62">
</g>
<g
   id="g64">
</g>
</svg>
