<?xml version="1.0" encoding="UTF-8" standalone="no"?> <svg xmlns="http://www.w3.org/2000/svg" fill="#fff" viewBox="0 0 64 64"><title>Data, Device, Memory, Memory Card, Sd Card, Storage</title><g id="Layer_13" data-name="Layer 13"><path d="M54.61,13.61,46.73,4.16A6,6,0,0,0,42.13,2H14A6,6,0,0,0,8,8V56a6,6,0,0,0,6,6H50a6,6,0,0,0,6-6V17.45A6,6,0,0,0,54.61,13.61ZM40,11.87a2,2,0,1,1,4,0v5.05a2,2,0,0,1-4,0ZM32,12a2,2,0,0,1,3.41-1.41A2,2,0,0,1,36,12V17a2,2,0,0,1-4,0Zm-8-.08a2,2,0,1,1,4,0v5.05a2,2,0,0,1-4,0Zm-8,0a2,2,0,1,1,4,0v5.05a2,2,0,0,1-4,0ZM48,38a2,2,0,0,1-4,0V36a2,2,0,0,0-2-2H22a2,2,0,0,0-2,2V48a2,2,0,0,0,2,2H42a2,2,0,0,0,2-2V44a2,2,0,0,1,4,0v4a6,6,0,0,1-6,6H22a6,6,0,0,1-6-6V36a6,6,0,0,1,6-6H42a6,6,0,0,1,6,6Z"/></g></svg>
